<svg width="24" height="25" viewBox="0 0 24 25" fill="none" xmlns="http://www.w3.org/2000/svg">
<path d="M12 23.582C6.07 23.582 1.25 18.762 1.25 12.832C1.25 6.90203 6.07 2.08203 12 2.08203C17.93 2.08203 22.75 6.90203 22.75 12.832C22.75 18.762 17.93 23.582 12 23.582ZM12 3.58203C6.9 3.58203 2.75 7.73203 2.75 12.832C2.75 17.932 6.9 22.082 12 22.082C17.1 22.082 21.25 17.932 21.25 12.832C21.25 7.73203 17.1 3.58203 12 3.58203Z" fill="#032340"/>
<path d="M15.5 13.582H9.5C9.09 13.582 8.75 13.242 8.75 12.832C8.75 12.422 9.09 12.082 9.5 12.082H15.5C15.91 12.082 16.25 12.422 16.25 12.832C16.25 13.242 15.91 13.582 15.5 13.582Z" fill="#032340"/>
<path d="M11.4975 16.5825C11.3075 16.5825 11.1175 16.5125 10.9675 16.3625L7.9675 13.3625C7.6775 13.0725 7.6775 12.5925 7.9675 12.3025L10.9675 9.30246C11.2575 9.01246 11.7375 9.01246 12.0275 9.30246C12.3175 9.59246 12.3175 10.0725 12.0275 10.3625L9.5575 12.8325L12.0275 15.3025C12.3175 15.5925 12.3175 16.0725 12.0275 16.3625C11.8775 16.5125 11.6875 16.5825 11.4975 16.5825Z" fill="#032340"/>
</svg>
