<svg width="40" height="40" viewBox="0 0 40 40" fill="none" xmlns="http://www.w3.org/2000/svg">
<path d="M13.3359 9.58301C12.6526 9.58301 12.0859 9.01634 12.0859 8.33301V3.33301C12.0859 2.64967 12.6526 2.08301 13.3359 2.08301C14.0193 2.08301 14.5859 2.64967 14.5859 3.33301V8.33301C14.5859 9.01634 14.0193 9.58301 13.3359 9.58301Z" fill="#194165"/>
<path d="M26.6641 9.58301C25.9807 9.58301 25.4141 9.01634 25.4141 8.33301V3.33301C25.4141 2.64967 25.9807 2.08301 26.6641 2.08301C27.3474 2.08301 27.9141 2.64967 27.9141 3.33301V8.33301C27.9141 9.01634 27.3474 9.58301 26.6641 9.58301Z" fill="#194165"/>
<path d="M14.1667 24.1669C13.95 24.1669 13.7333 24.1169 13.5333 24.0335C13.3167 23.9502 13.15 23.8335 12.9833 23.6835C12.6833 23.3668 12.5 22.9502 12.5 22.5002C12.5 22.2835 12.55 22.0669 12.6333 21.8669C12.7167 21.6669 12.8333 21.4835 12.9833 21.3169C13.15 21.1669 13.3167 21.0502 13.5333 20.9668C14.1333 20.7168 14.8833 20.8502 15.35 21.3169C15.65 21.6335 15.8333 22.0669 15.8333 22.5002C15.8333 22.6002 15.8167 22.7169 15.8 22.8335C15.7833 22.9335 15.75 23.0335 15.7 23.1335C15.6667 23.2335 15.6167 23.3335 15.55 23.4335C15.5 23.5169 15.4167 23.6002 15.35 23.6835C15.0333 23.9835 14.6 24.1669 14.1667 24.1669Z" fill="#194165"/>
<path d="M20.0026 24.1665C19.7859 24.1665 19.5693 24.1165 19.3693 24.0331C19.1526 23.9498 18.9859 23.8331 18.8193 23.6831C18.5193 23.3664 18.3359 22.9498 18.3359 22.4998C18.3359 22.2831 18.3859 22.0664 18.4693 21.8664C18.5526 21.6664 18.6693 21.4831 18.8193 21.3165C18.9859 21.1665 19.1526 21.0498 19.3693 20.9664C19.9693 20.6998 20.7193 20.8498 21.1859 21.3165C21.4859 21.6331 21.6693 22.0665 21.6693 22.4998C21.6693 22.5998 21.6526 22.7165 21.6359 22.8331C21.6193 22.9331 21.5859 23.0331 21.5359 23.1331C21.5026 23.2331 21.4526 23.3331 21.3859 23.4331C21.3359 23.5165 21.2526 23.5998 21.1859 23.6831C20.8693 23.9831 20.4359 24.1665 20.0026 24.1665Z" fill="#194165"/>
<path d="M25.8307 24.1665C25.6141 24.1665 25.3974 24.1165 25.1974 24.0331C24.9807 23.9498 24.8141 23.8331 24.6474 23.6831C24.5807 23.5998 24.5141 23.5165 24.4474 23.4331C24.3807 23.3331 24.3307 23.2331 24.2974 23.1331C24.2474 23.0331 24.2141 22.9331 24.1974 22.8331C24.1807 22.7165 24.1641 22.5998 24.1641 22.4998C24.1641 22.0665 24.3474 21.6331 24.6474 21.3165C24.8141 21.1665 24.9807 21.0498 25.1974 20.9664C25.8141 20.6998 26.5474 20.8498 27.0141 21.3165C27.3141 21.6331 27.4974 22.0665 27.4974 22.4998C27.4974 22.5998 27.4807 22.7165 27.4641 22.8331C27.4474 22.9331 27.4141 23.0331 27.3641 23.1331C27.3307 23.2331 27.2807 23.3331 27.2141 23.4331C27.1641 23.5165 27.0807 23.5998 27.0141 23.6831C26.6974 23.9831 26.2641 24.1665 25.8307 24.1665Z" fill="#194165"/>
<path d="M14.1667 30C13.95 30 13.7333 29.95 13.5333 29.8667C13.3333 29.7833 13.15 29.6666 12.9833 29.5166C12.6833 29.2 12.5 28.7667 12.5 28.3333C12.5 28.1167 12.55 27.9 12.6333 27.7C12.7167 27.4833 12.8333 27.3 12.9833 27.15C13.6 26.5333 14.7333 26.5333 15.35 27.15C15.65 27.4667 15.8333 27.9 15.8333 28.3333C15.8333 28.7667 15.65 29.2 15.35 29.5166C15.0333 29.8166 14.6 30 14.1667 30Z" fill="#194165"/>
<path d="M20.0026 30C19.5693 30 19.1359 29.8166 18.8193 29.5166C18.5193 29.2 18.3359 28.7667 18.3359 28.3333C18.3359 28.1167 18.3859 27.9 18.4693 27.7C18.5526 27.4833 18.6693 27.3 18.8193 27.15C19.4359 26.5333 20.5693 26.5333 21.1859 27.15C21.3359 27.3 21.4526 27.4833 21.5359 27.7C21.6193 27.9 21.6693 28.1167 21.6693 28.3333C21.6693 28.7667 21.4859 29.2 21.1859 29.5166C20.8693 29.8166 20.4359 30 20.0026 30Z" fill="#194165"/>
<path d="M25.8307 29.9999C25.3974 29.9999 24.9641 29.8165 24.6474 29.5165C24.4974 29.3665 24.3807 29.1832 24.2974 28.9665C24.2141 28.7665 24.1641 28.5499 24.1641 28.3332C24.1641 28.1165 24.2141 27.8998 24.2974 27.6998C24.3807 27.4832 24.4974 27.2999 24.6474 27.1499C25.0307 26.7665 25.6141 26.5832 26.1474 26.6998C26.2641 26.7165 26.3641 26.7498 26.4641 26.7998C26.5641 26.8332 26.6641 26.8832 26.7641 26.9499C26.8474 26.9999 26.9307 27.0832 27.0141 27.1499C27.3141 27.4665 27.4974 27.8999 27.4974 28.3332C27.4974 28.7665 27.3141 29.1998 27.0141 29.5165C26.6974 29.8165 26.2641 29.9999 25.8307 29.9999Z" fill="#194165"/>
<path d="M34.1693 16.4004H5.83594C5.1526 16.4004 4.58594 15.8337 4.58594 15.1504C4.58594 14.4671 5.1526 13.9004 5.83594 13.9004H34.1693C34.8526 13.9004 35.4193 14.4671 35.4193 15.1504C35.4193 15.8337 34.8526 16.4004 34.1693 16.4004Z" fill="#194165"/>
<path d="M26.6667 37.9163H13.3333C7.25 37.9163 3.75 34.4163 3.75 28.333V14.1663C3.75 8.08301 7.25 4.58301 13.3333 4.58301H26.6667C32.75 4.58301 36.25 8.08301 36.25 14.1663V28.333C36.25 34.4163 32.75 37.9163 26.6667 37.9163ZM13.3333 7.08301C8.56667 7.08301 6.25 9.39967 6.25 14.1663V28.333C6.25 33.0997 8.56667 35.4163 13.3333 35.4163H26.6667C31.4333 35.4163 33.75 33.0997 33.75 28.333V14.1663C33.75 9.39967 31.4333 7.08301 26.6667 7.08301H13.3333Z" fill="#194165"/>
</svg>
