<svg width="40" height="40" viewBox="0 0 40 40" fill="none" xmlns="http://www.w3.org/2000/svg">
<path d="M27.1297 36.8341H20.7964C19.863 36.8341 17.8297 36.5508 16.7464 35.4675L11.6964 31.5675L13.2297 29.5841L18.3964 33.5841C18.813 33.9841 19.863 34.3175 20.7964 34.3175H27.1297C28.6297 34.3175 30.2464 33.1175 30.5797 31.7675L34.613 19.5175C34.8797 18.7841 34.8297 18.1175 34.4797 17.6341C34.113 17.1175 33.4464 16.8175 32.6297 16.8175H25.963C25.0964 16.8175 24.2964 16.4508 23.7464 15.8175C23.1797 15.1675 22.9297 14.3008 23.063 13.4008L23.8964 8.0508C24.0964 7.11746 23.463 6.06746 22.563 5.76746C21.7464 5.46746 20.6964 5.9008 20.3297 6.43413L13.4964 16.6008L11.4297 15.2175L18.263 5.0508C19.313 3.48413 21.613 2.73413 23.413 3.41746C25.4964 4.1008 26.8297 6.4008 26.363 8.53413L25.5464 13.7841C25.5297 13.9008 25.5297 14.0675 25.6464 14.2008C25.7297 14.2841 25.8464 14.3341 25.9797 14.3341H32.6464C34.2797 14.3341 35.6964 15.0175 36.5297 16.2008C37.3464 17.3508 37.513 18.8675 36.9797 20.3341L32.9964 32.4675C32.3797 34.8841 29.813 36.8341 27.1297 36.8341Z" fill="#194165"/>
<path d="M8.96875 35.0007H7.30208C4.21875 35.0007 2.71875 33.5507 2.71875 30.584V14.2507C2.71875 11.284 4.21875 9.83398 7.30208 9.83398H8.96875C12.0521 9.83398 13.5521 11.284 13.5521 14.2507V30.584C13.5521 33.5507 12.0521 35.0007 8.96875 35.0007ZM7.30208 12.334C5.48542 12.334 5.21875 12.7673 5.21875 14.2507V30.584C5.21875 32.0673 5.48542 32.5007 7.30208 32.5007H8.96875C10.7854 32.5007 11.0521 32.0673 11.0521 30.584V14.2507C11.0521 12.7673 10.7854 12.334 8.96875 12.334H7.30208Z" fill="#194165"/>
</svg>
