<svg width="40" height="40" viewBox="0 0 40 40" fill="none" xmlns="http://www.w3.org/2000/svg">
<path d="M24.499 37.9159H15.499C7.26562 37.9159 3.76562 34.3992 3.76562 26.1826V18.6992C3.76562 18.0159 4.33229 17.4492 5.01562 17.4492C5.69896 17.4492 6.26562 18.0159 6.26562 18.6992V26.1826C6.26562 32.9992 8.68229 35.4159 15.499 35.4159H24.4823C31.299 35.4159 33.7156 32.9992 33.7156 26.1826V18.6992C33.7156 18.0159 34.2823 17.4492 34.9656 17.4492C35.649 17.4492 36.2156 18.0159 36.2156 18.6992V26.1826C36.2323 34.3992 32.7156 37.9159 24.499 37.9159Z" fill="#194165"/>
<path d="M20.0023 21.2497C18.1689 21.2497 16.5023 20.533 15.3189 19.2163C14.1356 17.8997 13.5856 16.183 13.7689 14.3497L14.8856 3.21634C14.9523 2.58301 15.4856 2.08301 16.1356 2.08301H23.9189C24.5689 2.08301 25.1023 2.56634 25.1689 3.21634L26.2856 14.3497C26.4689 16.183 25.9189 17.8997 24.7356 19.2163C23.5023 20.533 21.8356 21.2497 20.0023 21.2497ZM17.2523 4.58301L16.2523 14.5997C16.1356 15.7163 16.4689 16.7663 17.1689 17.533C18.5856 19.0997 21.4189 19.0997 22.8356 17.533C23.5356 16.7497 23.8689 15.6997 23.7523 14.5997L22.7523 4.58301H17.2523Z" fill="#194165"/>
<path d="M30.516 21.2497C27.1327 21.2497 24.116 18.5163 23.766 15.1497L22.5994 3.46634C22.566 3.11634 22.6827 2.76634 22.916 2.49967C23.1494 2.23301 23.4827 2.08301 23.8494 2.08301H28.9327C33.8327 2.08301 36.116 4.13301 36.7994 9.16634L37.266 13.7997C37.466 15.7663 36.866 17.633 35.5827 19.0497C34.2994 20.4663 32.4993 21.2497 30.516 21.2497ZM25.2327 4.58301L26.266 14.8997C26.4827 16.983 28.416 18.7497 30.516 18.7497C31.7827 18.7497 32.916 18.2663 33.7327 17.383C34.5327 16.4997 34.8994 15.3163 34.7827 14.0497L34.316 9.46634C33.7994 5.69967 32.5827 4.58301 28.9327 4.58301H25.2327Z" fill="#194165"/>
<path d="M9.39711 21.2497C7.41377 21.2497 5.61377 20.4663 4.33044 19.0497C3.04711 17.633 2.44711 15.7663 2.64711 13.7997L3.09711 9.21634C3.79711 4.13301 6.08044 2.08301 10.9804 2.08301H16.0638C16.4138 2.08301 16.7471 2.23301 16.9971 2.49967C17.2471 2.76634 17.3471 3.11634 17.3138 3.46634L16.1471 15.1497C15.7971 18.5163 12.7804 21.2497 9.39711 21.2497ZM10.9804 4.58301C7.33044 4.58301 6.11377 5.68301 5.58044 9.49967L5.13044 14.0497C4.99711 15.3163 5.38044 16.4997 6.18044 17.383C6.98044 18.2663 8.11377 18.7497 9.39711 18.7497C11.4971 18.7497 13.4471 16.983 13.6471 14.8997L14.6804 4.58301H10.9804Z" fill="#194165"/>
<path d="M24.1693 37.9163H15.8359C15.1526 37.9163 14.5859 37.3497 14.5859 36.6663V32.4997C14.5859 28.9997 16.5026 27.083 20.0026 27.083C23.5026 27.083 25.4193 28.9997 25.4193 32.4997V36.6663C25.4193 37.3497 24.8526 37.9163 24.1693 37.9163ZM17.0859 35.4163H22.9193V32.4997C22.9193 30.3997 22.1026 29.583 20.0026 29.583C17.9026 29.583 17.0859 30.3997 17.0859 32.4997V35.4163Z" fill="#194165"/>
</svg>
